<svg xmlns="http://www.w3.org/2000/svg" viewBox="0 0 111 38" width="111" height="38"><path d="M111 7.5v-.9c0-.6-.1-1.2-.2-1.9-.1-.6-.3-1.1-.5-1.6-.3-.5-.6-1-1-1.4-.4-.4-.9-.7-1.4-1-.5-.3-1.1-.4-1.7-.5-.7-.1-1.3-.1-1.8-.2H6.6c-.5 0-1.2 0-1.9.2-.5.1-1.1.3-1.6.5-.5.3-1 .6-1.4 1-.4.4-.7.9-1 1.4-.3.5-.4 1-.5 1.7-.1.6-.2 1.3-.2 1.8V31.3c0 .5 0 1.2.2 1.9.1.6.3 1.1.5 1.6.3.5.6 1 1 1.4.4.4.9.7 1.4 1 .5.3 1 .4 1.6.5.7.2 1.4.3 1.9.3H104.4c.6 0 1.2 0 1.9-.2.6-.1 1.1-.3 1.7-.5.5-.3 1-.6 1.4-1 .4-.4.7-.9 1-1.4.3-.5.4-1 .5-1.7.1-.6.1-1.3.2-1.8v-.9V8.6c-.1-.4-.1-.7-.1-1.1z" fill="#000"></path><path d="M26.6 23.7c0 .1-.4 1.6-1.5 3.1-.9 1.3-1.8 2.6-3.3 2.7-1.4 0-1.9-.8-3.6-.8-1.7 0-2.2.8-3.6.9-1.4.1-2.5-1.4-3.4-2.7-1.9-2.7-3.3-7.6-1.4-11 .9-1.6 2.6-2.7 4.5-2.7 1.4 0 2.7 1 3.6 1 .9 0 2.5-1.2 4.2-1 .7 0 2.7.3 4 2.2-.1.1-2.4 1.4-2.4 4.1 0 3.1 2.8 4.2 2.9 4.2zm-5.7-12.4c.7-.9 1.3-2.2 1.1-3.5-1.1 0-2.4.7-3.2 1.7-.7.8-1.3 2.1-1.1 3.4 1.2 0 2.4-.7 3.2-1.6zm19 5.8l4.5 12.4h-2l-1.1-3.3h-4.7l-1.1 3.3h-2L38 17.1h1.9zm.8 7.5l-1.9-5.4h-.1l-1.9 5.4h3.9zM54 25c0 2.8-1.5 4.6-3.8 4.6-1.2 0-2.2-.6-2.8-1.6v4.5h-1.9v-12h1.8V22c.5-1 1.6-1.6 2.9-1.6 2.3 0 3.8 1.8 3.8 4.6zm-1.9 0c0-1.8-.9-3-2.4-3-1.4 0-2.4 1.2-2.4 3s1 3 2.4 3c1.5 0 2.4-1.2 2.4-3zM64 25c0 2.8-1.5 4.6-3.8 4.6-1.3 0-2.3-.6-2.8-1.6v4.5h-1.9v-12h1.8V22c.5-1 1.6-1.6 2.9-1.6 2.3 0 3.8 1.8 3.8 4.6zm-1.9 0c0-1.8-.9-3-2.4-3-1.4 0-2.4 1.2-2.4 3s1 3 2.4 3c1.5 0 2.4-1.2 2.4-3zm3.4 4.5h1.9V17.1h-1.9v12.4zm11.7-4.7v.6h-6.4v.1c0 1.5 1 2.6 2.4 2.6 1 0 1.8-.5 2.1-1.3h1.8c-.3 1.6-1.9 2.8-3.9 2.8-2.6 0-4.3-1.8-4.3-4.6s1.6-4.7 4.2-4.7c2.5.1 4.1 1.8 4.1 4.5zm-1.9-.6c0-1.4-.9-2.3-2.2-2.3-1.3 0-2.2.9-2.3 2.3h4.5zm6.4-5.4h3.8v10.7h1.9V18.8h3.8v-1.7h-9.5v1.7zm19.1-1.7l-3.4 10.2h-.1L94 17.1h-2.1l4.4 12.4h2.1l4.4-12.4h-2zm-64.1-3.4h-2.2v-6h2.2c1.8 0 2.8 1.1 2.8 3 0 2-1 3-2.8 3zm-.1-.8c1.2 0 2-.8 2-2.1s-.7-2.1-2-2.1h-1.1V13h1.1zm8.2-1.4c0 1.5-.8 2.3-2.1 2.3s-2.1-.9-2.1-2.3.8-2.3 2.1-2.3 2.1.8 2.1 2.3zm-.9 0c0-1-.4-1.5-1.2-1.5-.8 0-1.2.6-1.2 1.5 0 1 .4 1.5 1.2 1.5.8 0 1.2-.5 1.2-1.5zm3.7 2.2l.9-3.3h.1l.9 3.3h.9l1.2-4.5h-.9l-.7 3.5h-.1L49 9.3h-.9l-.9 3.4h-.1l-.8-3.4h-.9l1.2 4.5h1zm8.1 0h.9v-2.9c0-1.1-.6-1.7-1.6-1.7-.7 0-1.1.3-1.3.8h-.1v-.6h-.9v4.5h.9v-2.6c0-.7.4-1.1 1.1-1.1s1 .4 1 1.1v2.5zm3.2-6.2H58v6.2h.9V7.5zm5.5 4c0 1.5-.8 2.3-2.1 2.3s-2.1-.9-2.1-2.3.8-2.3 2.1-2.3c1.2 0 2.1.8 2.1 2.3zm-1 0c0-1-.4-1.5-1.2-1.5-.8 0-1.2.6-1.2 1.5 0 1 .4 1.5 1.2 1.5.8 0 1.2-.5 1.2-1.5zm4.8 2.2v-.6h-.1c-.3.4-.8.7-1.4.7-.9 0-1.5-.5-1.5-1.3s.6-1.3 1.7-1.3l1.2-.1v-.4c0-.5-.3-.7-.9-.7-.5 0-.8.2-.9.5h-.9c.1-.8.8-1.3 1.8-1.3 1.1 0 1.8.6 1.8 1.5v3.1h-.8zm0-2l-1.1.1c-.6 0-.9.3-.9.6 0 .4.4.6.8.6.7 0 1.2-.4 1.2-1v-.3zm2-.2c0-1.4.7-2.3 1.9-2.3.6 0 1.1.3 1.4.8h.1V7.5h.9v6.2h-.9V13h-.1c-.3.5-.8.8-1.4.8-1.1 0-1.9-.9-1.9-2.3zm1 0c0 1 .5 1.5 1.2 1.5s1.2-.6 1.2-1.5-.5-1.5-1.2-1.5c-.8 0-1.2.6-1.2 1.5zm9.1 2.3c-1.3 0-2.1-.9-2.1-2.3s.8-2.3 2.1-2.3 2.1.9 2.1 2.3c0 1.5-.8 2.3-2.1 2.3zm1.2-2.3c0-1-.4-1.5-1.2-1.5-.8 0-1.2.6-1.2 1.5 0 1 .4 1.5 1.2 1.5.7 0 1.2-.5 1.2-1.5zm3-.4c0-.7.4-1.1 1.1-1.1s1 .4 1 1.1v2.7h.9v-2.9c0-1.1-.6-1.7-1.6-1.7-.7 0-1.1.3-1.3.8h-.1v-.7h-.9v4.5h.9v-2.7z" fill="#fff"></path></svg>