<svg xmlns="http://www.w3.org/2000/svg" viewBox="0 0 118 38" width="118" height="38"><path d="M118 7.5v-.9c0-.6-.1-1.2-.2-1.9-.1-.6-.3-1.1-.5-1.6-.3-.5-.6-1-1-1.4-.4-.4-.9-.7-1.4-1-.5-.3-1.1-.4-1.7-.5-.7-.1-1.3-.1-1.9-.2H6.7c-.5 0-1.2 0-1.9.2-.6.1-1.1.3-1.7.5-.5.3-1 .6-1.4 1-.4.4-.7.9-1 1.4-.3.5-.4 1-.5 1.7-.1.6-.2 1.3-.2 1.8V31.3c0 .5 0 1.2.2 1.9.1.6.3 1.1.5 1.6.3.5.6 1 1 1.4.4.4.9.7 1.4 1 .5.3 1 .4 1.7.5.6.2 1.3.3 1.9.3h104.7c.6 0 1.2 0 1.9-.2.6-.1 1.2-.3 1.7-.5.5-.3 1-.6 1.4-1 .4-.4.7-.9 1-1.4.3-.5.4-1 .5-1.7.1-.6.2-1.3.2-1.8v-.9V8.6c-.1-.4-.1-.7-.1-1.1z" fill="#000"></path><path d="M27 23.7c0 .1-.4 1.6-1.5 3.1-.9 1.3-1.8 2.6-3.3 2.7-1.4 0-1.9-.8-3.6-.8-1.7 0-2.2.8-3.6.9-1.4.1-2.5-1.4-3.4-2.7-1.9-2.7-3.3-7.6-1.4-11 .9-1.6 2.6-2.7 4.5-2.7 1.4 0 2.7 1 3.6 1 .9 0 2.5-1.2 4.2-1 .7 0 2.7.3 4 2.2-.1.1-2.4 1.4-2.4 4.1 0 3.1 2.8 4.2 2.9 4.2zm-5.7-12.4c.7-.9 1.3-2.2 1.1-3.5-1.1 0-2.4.7-3.2 1.7-.7.8-1.3 2.1-1.1 3.4 1.2 0 2.4-.7 3.2-1.6zm19 5.8l4.5 12.4h-2l-1.1-3.3H37l-1.1 3.3h-2l4.5-12.4h1.9zm.8 7.5l-1.8-5.4h-.1l-1.9 5.4h3.8zm13.3.4c0 2.8-1.5 4.6-3.8 4.6-1.3 0-2.3-.6-2.8-1.6v4.5h-1.9v-12h1.8V22c.5-1 1.6-1.6 2.9-1.6 2.3 0 3.8 1.8 3.8 4.6zm-1.9 0c0-1.8-.9-3-2.4-3-1.4 0-2.4 1.2-2.4 3s1 3 2.4 3c1.5 0 2.4-1.2 2.4-3zm11.9 0c0 2.8-1.5 4.6-3.8 4.6-1.3 0-2.3-.6-2.8-1.6v4.5h-1.9v-12h1.8V22c.5-1 1.6-1.6 2.9-1.6 2.3 0 3.8 1.8 3.8 4.6zm-1.9 0c0-1.8-.9-3-2.4-3-1.4 0-2.4 1.2-2.4 3s1 3 2.4 3 2.4-1.2 2.4-3zM75 22.5l-1.4-.3c-1.6-.4-2.3-.9-2.3-1.8 0-1.1 1-1.9 2.5-1.9s2.5.7 2.6 2h1.9c-.1-2.1-1.9-3.6-4.5-3.6-2.7 0-4.5 1.5-4.5 3.6 0 1.7 1.1 2.8 3.3 3.3l1.6.4c1.6.4 2.3 1 2.3 1.9 0 1.1-1.1 1.9-2.7 1.9s-2.8-.8-3-2h-1.9c.1 2.2 2 3.7 4.7 3.7 2.9 0 4.8-1.5 4.8-3.8.2-1.8-.9-2.8-3.4-3.4zm7.6-4.2h-1.9v2.1h-1.3v1.5h1.3v5.2c0 1.8.7 2.4 2.5 2.4.4 0 .8 0 1-.1V28h-.6c-.8 0-1.1-.4-1.1-1.1v-5h1.7v-1.5h-1.7v-2.1zM93.9 25c0 2.9-1.7 4.6-4.3 4.6-2.6 0-4.3-1.8-4.3-4.6s1.7-4.6 4.3-4.6c2.7 0 4.3 1.8 4.3 4.6zM92 25c0-1.9-.9-3.1-2.4-3.1s-2.4 1.2-2.4 3.1c0 2 .9 3.1 2.4 3.1S92 27 92 25zm5.3-3v-1.5h-1.8v9h1.9v-5.4c0-1.3.7-2.1 1.9-2.1.4 0 .7.1.8.1v-1.7c-.1 0-.4-.1-.6-.1-1.1.1-1.9.7-2.2 1.7zm5.1 3.5v.1c0 1.5 1 2.6 2.4 2.6 1 0 1.8-.5 2.1-1.3h1.8c-.2 1.6-1.9 2.8-3.9 2.8-2.6 0-4.3-1.8-4.3-4.6s1.6-4.7 4.2-4.7c2.5 0 4.1 1.7 4.1 4.5v.6h-6.4zm0-1.3h4.5c0-1.4-.9-2.3-2.2-2.3-1.3 0-2.2.9-2.3 2.3zM37.1 13.7h-2.2v-6h2.2c1.8 0 2.8 1.1 2.8 3 0 2-1 3-2.8 3zm-.1-.8c1.2 0 2-.8 2-2.1s-.7-2.1-2-2.1h-1.1V13H37zm8.2-1.4c0 1.5-.8 2.3-2.1 2.3s-2.1-.9-2.1-2.3.8-2.3 2.1-2.3 2.1.9 2.1 2.3zm-.9 0c0-1-.4-1.5-1.2-1.5-.8 0-1.2.6-1.2 1.5 0 1 .4 1.5 1.2 1.5.7 0 1.2-.5 1.2-1.5zm3.7 2.2l.9-3.3h.1l.9 3.3h.9L52 9.2h-.9l-.8 3.4h-.1l-.9-3.4h-.9l-.9 3.4h-.1l-.8-3.4h-.9l1.2 4.5H48zm8.1 0h.9v-2.9c0-1.1-.6-1.7-1.6-1.7-.7 0-1.1.3-1.3.8H54v-.6h-.9v4.5h.9v-2.6c0-.7.4-1.1 1.1-1.1.7 0 1 .4 1 1.1v2.5zm3.2-6.2h-.9v6.2h.9V7.5zm5.4 4c0 1.5-.8 2.3-2.1 2.3s-2.1-.9-2.1-2.3.8-2.3 2.1-2.3 2.1.9 2.1 2.3zm-.9 0c0-1-.4-1.5-1.2-1.5-.8 0-1.2.6-1.2 1.5 0 1 .4 1.5 1.2 1.5.8 0 1.2-.5 1.2-1.5zm4.8 2.2v-.6h-.1c-.3.4-.8.7-1.4.7-.9 0-1.5-.5-1.5-1.3s.6-1.3 1.7-1.3l1.2-.1v-.4c0-.5-.3-.7-.9-.7-.5 0-.8.2-.9.5h-.9c.1-.8.8-1.3 1.8-1.3 1.1 0 1.8.6 1.8 1.5v3.1h-.8zm0-2l-1.1.1c-.6 0-.9.3-.9.6 0 .4.4.6.8.6.7 0 1.2-.4 1.2-1v-.3zm2-.2c0-1.4.7-2.3 1.9-2.3.6 0 1.1.3 1.4.8h.1V7.5h.9v6.2H74V13h-.1c-.3.5-.8.8-1.4.8-1.2 0-1.9-.9-1.9-2.3zm.9 0c0 1 .5 1.5 1.2 1.5s1.2-.6 1.2-1.5-.5-1.5-1.2-1.5-1.2.6-1.2 1.5zm9.1 2.3c-1.3 0-2.1-.9-2.1-2.3s.8-2.3 2.1-2.3 2.1.9 2.1 2.3c0 1.5-.8 2.3-2.1 2.3zm0-.8c.8 0 1.2-.6 1.2-1.5 0-1-.4-1.5-1.2-1.5-.8 0-1.2.6-1.2 1.5 0 1 .5 1.5 1.2 1.5zm6.3-1.9v2.7h.9v-2.9c0-1.1-.6-1.7-1.6-1.7-.7 0-1.1.3-1.3.8h-.1v-.7h-.9v4.5h.9v-2.6c0-.7.4-1.1 1.1-1.1s1 .2 1 1zm5 1.5c0 .9.4 1.2 1.4 1.2h.5V13h-.3c-.4 0-.6-.2-.6-.7V10h1v-.7h-1V8.1H92v1.1h-.7v.8h.7v2.6zm4-1.5c0-.7.4-1.1 1.1-1.1.6 0 1 .4 1 1.1v2.7h.9v-2.9c0-1.1-.6-1.7-1.6-1.7-.7 0-1.2.3-1.4.8h-.1V7.5H95v6.2h.9v-2.6zm4.1.4c0-1.4.8-2.3 2.1-2.3s2 .9 2 2.3v.3h-3.2c0 .8.5 1.3 1.2 1.3.5 0 .9-.2 1.1-.5h.9c-.2.8-.9 1.3-2 1.3-1.3-.1-2.1-.9-2.1-2.4zm.9-.4h2.3c0-.7-.5-1.2-1.1-1.2-.7 0-1.1.5-1.2 1.2z" fill="#fff"></path></svg>