<svg xmlns="http://www.w3.org/2000/svg" viewBox="0 0 154 38" width="154" height="38"><path d="M154 7.5v-.9c0-.6-.1-1.2-.2-1.9-.1-.6-.3-1.1-.5-1.6-.3-.5-.6-1-1-1.4-.4-.4-.9-.7-1.4-1-.5-.3-1.1-.4-1.7-.5-.7-.1-1.3-.1-1.9-.2H6.7c-.5 0-1.2 0-1.9.2-.6.1-1.2.3-1.7.5-.5.3-1 .6-1.4 1-.4.4-.7.9-1 1.4-.3.5-.4 1-.5 1.7-.1.6-.2 1.3-.2 1.8V31.3c0 .5 0 1.2.2 1.9.1.6.3 1.1.5 1.6.3.5.6 1 1 1.4.4.4.9.7 1.4 1 .5.3 1 .4 1.7.5.6.2 1.3.3 1.9.3H147.4c.6 0 1.2 0 1.9-.2.6-.1 1.1-.3 1.7-.5.5-.3 1-.6 1.4-1 .4-.4.7-.9 1-1.4.3-.5.4-1 .5-1.7.1-.6.2-1.3.2-1.8v-.9V8.6c-.1-.4-.1-.7-.1-1.1z" fill="#000"></path><path d="M26.7 23.7c0 .1-.4 1.6-1.5 3.1-.9 1.3-1.8 2.6-3.3 2.7-1.4 0-1.9-.9-3.6-.9-1.7 0-2.2.8-3.6.9-1.4.1-2.5-1.4-3.4-2.8C9.4 24 8 19.1 9.9 15.8c.9-1.6 2.6-2.7 4.5-2.7 1.4 0 2.7 1 3.6 1 .9 0 2.5-1.2 4.2-1 .7 0 2.7.3 4 2.2-.1.1-2.4 1.4-2.4 4.2 0 3.1 2.9 4.2 2.9 4.2zm-5.6-12.5c.7-.9 1.3-2.2 1.1-3.5-1.1 0-2.4.7-3.2 1.7-.7.8-1.3 2.1-1.1 3.4 1.2 0 2.4-.7 3.2-1.6zm19.6 15.7l-4.1-9.8h-2.2v12.4h1.8v-9.1h.1l3.8 9h1.4l3.7-9h.1v9.1H47V17.1h-2.2l-4.1 9.8zm15.4-3.6v6.2h-1.8V28c-.5 1-1.7 1.6-2.9 1.6-1.8 0-3-1.1-3-2.7s1.2-2.5 3.4-2.7l2.5-.1v-.7c0-1-.7-1.6-1.8-1.6-1 0-1.8.5-1.9 1.3h-1.7c.1-1.6 1.6-2.8 3.7-2.8s3.5 1.2 3.5 3zm-1.8 2.1l-2.2.1c-1.1.1-1.7.6-1.7 1.3 0 .8.7 1.3 1.7 1.3 1.3 0 2.3-.9 2.3-2.1v-.6zm7.5 2.7c-1.4 0-2.4-1.2-2.4-3.1 0-1.9.9-3.1 2.4-3.1 1.2 0 2 .7 2.1 1.7h1.8c-.2-1.8-1.6-3.2-3.9-3.2-2.6 0-4.3 1.8-4.3 4.6 0 2.9 1.7 4.6 4.3 4.6 2.2 0 3.7-1.3 3.9-3.2h-1.8c-.2 1.1-.9 1.7-2.1 1.7zm14.7-11L81 29.5h-2l-1.1-3.4h-4.7l-1.1 3.4h-2l4.5-12.4h1.9zm.8 7.5l-1.8-5.4h-.1l-1.9 5.4h3.8zm13.4.4c0 2.8-1.5 4.6-3.8 4.6-1.3 0-2.3-.6-2.8-1.6v4.5h-1.9v-12H84V22c.5-1 1.6-1.6 2.9-1.6 2.2-.1 3.8 1.8 3.8 4.6zm-2 0c0-1.8-.9-3-2.4-3-1.4 0-2.4 1.2-2.4 3s1 3 2.4 3c1.5 0 2.4-1.2 2.4-3zm11.9 0c0 2.8-1.5 4.6-3.8 4.6-1.3 0-2.3-.6-2.8-1.6v4.5h-1.9v-12h1.8V22c.5-1 1.6-1.6 2.9-1.6 2.3-.1 3.8 1.8 3.8 4.6zm-1.9 0c0-1.8-.9-3-2.4-3-1.4 0-2.4 1.2-2.4 3s1 3 2.4 3c1.5 0 2.4-1.2 2.4-3zm12.5-2.5l-1.4-.3c-1.6-.4-2.3-.9-2.3-1.8 0-1.1 1-1.9 2.5-1.9s2.5.7 2.6 2h1.9c-.1-2.1-1.9-3.6-4.5-3.6-2.7 0-4.5 1.5-4.5 3.6 0 1.7 1.1 2.8 3.3 3.3l1.6.4c1.6.4 2.3 1 2.3 1.9 0 1.1-1.1 1.9-2.7 1.9s-2.8-.8-3-2h-1.9c.1 2.2 2 3.7 4.7 3.7 2.9 0 4.8-1.5 4.8-3.8.2-1.8-.8-2.8-3.4-3.4zm7.6-4.2H117v2.1h-1.3v1.5h1.3v5.2c0 1.8.7 2.4 2.5 2.4.4 0 .8 0 1-.1V28h-.6c-.8 0-1.1-.4-1.1-1.1v-5h1.7v-1.5h-1.7v-2.1zm11.4 6.7c0 2.9-1.7 4.6-4.3 4.6-2.6 0-4.3-1.8-4.3-4.6s1.7-4.6 4.3-4.6c2.6-.1 4.3 1.7 4.3 4.6zm-1.9 0c0-2-.9-3.1-2.4-3.1s-2.4 1.2-2.4 3.1c0 2 .9 3.1 2.4 3.1s2.4-1.2 2.4-3.1zm5.2-3v-1.5h-1.8v9.1h1.9v-5.4c0-1.3.7-2.1 1.9-2.1.4 0 .7.1.8.1v-1.7c-.1 0-.4-.1-.6-.1-1.1-.1-1.9.6-2.2 1.6zm5.1 3.4v.1c0 1.5 1 2.6 2.4 2.6 1 0 1.8-.5 2.1-1.3h1.8c-.2 1.6-1.9 2.8-3.9 2.8-2.6 0-4.3-1.8-4.3-4.6s1.6-4.7 4.2-4.7c2.5 0 4.1 1.7 4.1 4.5v.6h-6.4zm0-1.3h4.5c0-1.4-.9-2.3-2.2-2.3-1.3 0-2.2 1-2.3 2.3zM36.9 13.7h-2.2v-6h2.2c1.8 0 2.8 1.1 2.8 3s-1.1 3-2.8 3zm-.1-.8c1.2 0 2-.8 2-2.1s-.7-2.1-2-2.1h-1.1V13h1.1zm3.9-1.5c0-1.5.8-2.3 2.1-2.3s2.1.9 2.1 2.3c0 1.5-.8 2.3-2.1 2.3-1.3.1-2.1-.8-2.1-2.3zm.9 0c0 1 .4 1.6 1.2 1.6.8 0 1.2-.6 1.2-1.6s-.4-1.5-1.2-1.5c-.7 0-1.2.6-1.2 1.5zm7.2-1l.9 3.3h.9l1.2-4.5H51l-.8 3.4h-.1l-.9-3.4h-.9l-.9 3.4h-.1l-.8-3.4h-.9l1.2 4.5h.9l1.1-3.3zm6.4-1.3c-.7 0-1.1.3-1.3.8h-.1v-.7h-.9v4.5h.9v-2.6c0-.7.4-1.1 1.1-1.1s1 .4 1 1.1v2.7h.9v-2.9c-.1-1.2-.6-1.8-1.6-1.8zM59 7.4h-.9v6.3h.9V7.4zm1.3 4c0-1.5.8-2.3 2.1-2.3s2.1.9 2.1 2.3c0 1.5-.8 2.3-2.1 2.3-1.3.1-2.1-.8-2.1-2.3zm.9 0c0 1 .4 1.6 1.2 1.6.8 0 1.2-.6 1.2-1.6s-.4-1.5-1.2-1.5c-.8 0-1.2.6-1.2 1.5zm8-.8v3.1h-.9v-.6h-.1c-.3.5-.8.7-1.4.7-.9 0-1.5-.5-1.5-1.3s.6-1.3 1.7-1.3l1.2-.1v-.4c0-.5-.3-.7-.9-.7-.5 0-.8.2-.9.5h-.9c.1-.8.8-1.3 1.8-1.3 1.3-.1 1.9.5 1.9 1.4zm-.9 1.1l-1.1.1c-.6 0-.9.3-.9.6 0 .4.4.6.8.6.7 0 1.2-.4 1.2-1v-.3zm2.1-.3c0-1.4.7-2.3 1.9-2.3.6 0 1.1.3 1.4.8h.1V7.4h.9v6.3h-.9V13h-.1c-.3.5-.8.8-1.4.8-1.2 0-1.9-.9-1.9-2.4zm.9 0c0 1 .5 1.5 1.2 1.5s1.2-.6 1.2-1.5-.5-1.5-1.2-1.5-1.2.6-1.2 1.5zm11.2 0c0 1.5-.8 2.3-2.1 2.3s-2.1-.9-2.1-2.3c0-1.5.8-2.3 2.1-2.3s2.1.9 2.1 2.3zm-.9 0c0-1-.4-1.5-1.2-1.5-.8 0-1.2.6-1.2 1.5 0 1 .4 1.6 1.2 1.6.8 0 1.2-.6 1.2-1.6zm3-.3c0-.7.4-1.1 1.1-1.1s1 .4 1 1.1v2.7h.9v-2.9c0-1.1-.6-1.7-1.6-1.7-.7 0-1.1.3-1.3.8h-.1v-.8h-.9v4.5h.9v-2.6zm8.9 2.6V13h-.3c-.4 0-.6-.2-.6-.7V10h1v-.8h-1V8.1h-.9v1.1H91v.8h.7v2.5c0 .9.4 1.2 1.4 1.2h.4zm2.1-2.6c0-.7.4-1.1 1.1-1.1.6 0 1 .4 1 1.1v2.7h.9v-2.9c0-1.1-.6-1.7-1.6-1.7-.7 0-1.2.3-1.4.8h-.1V7.4h-.9v6.3h.9v-2.6zm8.3.3v.3h-3.2c0 .8.5 1.3 1.2 1.3.5 0 .9-.2 1.1-.5h.9c-.2.8-.9 1.3-2 1.3-1.3 0-2.1-.9-2.1-2.3s.8-2.4 2.1-2.4c1.2 0 2 .9 2 2.3zm-.9-.4c0-.7-.5-1.2-1.1-1.2-.7 0-1.1.5-1.2 1.2h2.3z" fill="#fff"></path></svg>